<?xml version="1.0" encoding="utf-8"?>
<!DOCTYPE svg PUBLIC "-//W3C//DTD SVG 1.1//EN" "http://www.w3.org/Graphics/SVG/1.1/DTD/svg11.dtd">
<svg xmlns="http://www.w3.org/2000/svg" xmlns:xlink="http://www.w3.org/1999/xlink" version="1.1" baseProfile="full" width="81.92" height="81.92" viewBox="0 0 81.92 81.92" enable-background="new 0 0 81.92 81.92" xml:space="preserve">
	<rect x="0" y="0" fill="#FFEEBF" fill-opacity="1" stroke-width="0.32" stroke-linejoin="round" width="81.92" height="81.92"/>
	<path fill="#120042" fill-opacity="1" stroke-width="0.32" stroke-linejoin="round" d="M 13.75,8.99999C 11.375,8.99999 9,11.375 9,13.75C 9,16.125 11.375,18.5 13.75,18.5C 16.125,18.5 18.5,16.125 18.5,13.75C 18.5,11.375 16.125,8.99999 13.75,8.99999 Z "/>
	<path fill="#120042" fill-opacity="1" stroke-width="0.32" stroke-linejoin="round" d="M 13.75,26.5C 11.375,26.5 9,28.875 9,31.25C 9,33.625 11.375,36 13.75,36C 16.125,36 18.5,33.625 18.5,31.25C 18.5,28.875 16.125,26.5 13.75,26.5 Z "/>
	<path fill="#120042" fill-opacity="1" stroke-width="0.32" stroke-linejoin="round" d="M 13.75,45C 11.375,45 9,47.375 9,49.75C 9,52.125 11.375,54.5 13.75,54.5C 16.125,54.5 18.5,52.125 18.5,49.75C 18.5,47.375 16.125,45 13.75,45 Z "/>
	<path fill="#120042" fill-opacity="1" stroke-width="0.32" stroke-linejoin="round" d="M 13.75,64C 11.375,64 9,66.375 9,68.75C 9,71.125 11.375,73.5 13.75,73.5C 16.125,73.5 18.5,71.125 18.5,68.75C 18.5,66.375 16.125,64 13.75,64 Z "/>
	<path fill="#120042" fill-opacity="1" stroke-width="0.32" stroke-linejoin="round" d="M 28.25,9.84375C 28,10.8438 27.5,12.8438 27.5,14.8438C 27.5,16.8438 28,18.8438 30.25,19.3438C 32.5,19.8438 36.5,18.8438 40,18.0938C 43.5,17.3438 46.5,16.8438 50.25,16.8438C 54,16.8438 58.5,17.3438 61.75,17.3438C 65,17.3438 67,16.8438 68.25,16.3438C 69.5,15.8438 70,15.3438 70.25,14.8438C 70.5,14.3438 70.5,13.8438 70.5,13.3438C 70.5,12.8438 70.5,12.3438 70.25,11.8438C 70,11.3438 69.5,10.8438 68.25,10.3438C 67,9.84376 65,9.34376 61.75,9.34376C 58.5,9.34376 54,9.84376 48.25,9.84376C 42.5,9.84376 35.5,9.34375 32,9.09375C 28.5,8.84375 28.5,8.84375 28.25,9.84375 Z "/>
	<path fill="#120042" fill-opacity="1" stroke-width="0.32" stroke-linejoin="round" d="M 27.75,27.8437C 27.5,28.8437 27,30.8437 27,32.8437C 27,34.8437 27.5,36.8437 29.75,37.3437C 32,37.8437 36,36.8437 39.5,36.0937C 43,35.3437 46,34.8437 49.75,34.8437C 53.5,34.8437 58,35.3437 61.25,35.3437C 64.5,35.3437 66.5,34.8437 67.75,34.3437C 69,33.8437 69.5,33.3438 69.75,32.8438C 70,32.3438 70,31.8438 70,31.3438C 70,30.8438 70,30.3438 69.75,29.8438C 69.5,29.3438 69,28.8438 67.75,28.3438C 66.5,27.8438 64.5,27.3438 61.25,27.3438C 58,27.3438 53.5,27.8438 47.75,27.8438C 42,27.8438 35,27.3437 31.5,27.0937C 28,26.8437 28,26.8437 27.75,27.8437 Z "/>
	<path fill="#120042" fill-opacity="1" stroke-width="0.32" stroke-linejoin="round" d="M 27.75,45.8437C 27.5,46.8437 27,48.8437 27,50.8438C 27,52.8438 27.5,54.8438 29.75,55.3438C 32,55.8438 36,54.8438 39.5,54.0938C 43,53.3438 46,52.8438 49.75,52.8438C 53.5,52.8438 58,53.3438 61.25,53.3438C 64.5,53.3438 66.5,52.8438 67.75,52.3438C 69,51.8438 69.5,51.3438 69.75,50.8438C 70,50.3438 70,49.8438 70,49.3438C 70,48.8438 70,48.3438 69.75,47.8438C 69.5,47.3438 69,46.8438 67.75,46.3438C 66.5,45.8438 64.5,45.3438 61.25,45.3438C 58,45.3438 53.5,45.8438 47.75,45.8438C 42,45.8438 35,45.3437 31.5,45.0937C 28,44.8437 28,44.8437 27.75,45.8437 Z "/>
	<path fill="#120042" fill-opacity="1" stroke-width="0.32" stroke-linejoin="round" d="M 28.25,65.3438C 28,66.3438 27.5,68.3438 27.5,70.3438C 27.5,72.3438 28,74.3438 30.25,74.8438C 32.5,75.3438 36.5,74.3438 40,73.5938C 43.5,72.8438 46.5,72.3438 50.25,72.3438C 54,72.3438 58.5,72.8438 61.75,72.8438C 65,72.8438 67,72.3438 68.25,71.8438C 69.5,71.3438 70,70.8438 70.25,70.3438C 70.5,69.8438 70.5,69.3438 70.5,68.8438C 70.5,68.3438 70.5,67.8438 70.25,67.3438C 70,66.8438 69.5,66.3438 68.25,65.8438C 67,65.3438 65,64.8438 61.75,64.8438C 58.5,64.8438 54,65.3438 48.25,65.3438C 42.5,65.3438 35.5,64.8438 32,64.5938C 28.5,64.3438 28.5,64.3438 28.25,65.3438 Z "/>
</svg>
